<svg width="18" height="18" viewBox="0 0 18 18" fill="none" xmlns="http://www.w3.org/2000/svg">
<g clip-path="url(#clip0_39_1129)">
<path d="M11.92 4.9875C12.5375 5.685 12.83 6.66 12.71 7.66C12.485 9.5375 11.11 10.2075 9.8875 10.2075C9.8375 10.2075 9.7825 10.2075 9.7825 10.21V10.685C9.7825 11.1175 9.4325 11.4675 9 11.4675C8.5675 11.4675 8.2175 11.1175 8.2175 10.685V10.055C8.2175 9.41 8.4875 8.6425 9.8875 8.6425C10.645 8.6425 11.05 8.25 11.1425 7.4725C11.175 7.21 11.1975 6.5425 10.74 6.025C10.3675 5.605 9.765 5.3925 8.9475 5.3925C7.1775 5.3925 7.125 6.5375 7.125 6.6675C7.125 7.1 6.775 7.45 6.3425 7.45C5.91 7.45 5.56 7.1 5.56 6.6675C5.56 5.8775 6.1675 3.8275 8.9475 3.8275C10.5475 3.8275 11.45 4.4575 11.9175 4.985L11.92 4.9875ZM8.95 12.135C8.6925 12.135 8.4425 12.24 8.2575 12.4225C8.075 12.605 7.9725 12.8575 7.9725 13.1125C7.9725 13.3675 8.075 13.6225 8.2575 13.805C8.4425 13.9875 8.6925 14.0925 8.95 14.0925C9.2075 14.0925 9.46 13.9875 9.6425 13.805C9.825 13.6225 9.9275 13.37 9.9275 13.1125C9.9275 12.855 9.825 12.6025 9.6425 12.4225C9.46 12.24 9.2075 12.135 8.95 12.135ZM18 9C18 13.9625 13.9625 18 9 18C4.0375 18 0 13.9625 0 9C0 4.0375 4.0375 0 9 0C13.9625 0 18 4.0375 18 9ZM16.435 9C16.435 4.9 13.1 1.565 9 1.565C4.9 1.565 1.565 4.9 1.565 9C1.565 13.1 4.9 16.435 9 16.435C13.1 16.435 16.435 13.1 16.435 9Z" fill="#4D4D4D"/>
</g>
<defs>
<clipPath id="clip0_39_1129">
<rect width="18" height="18" fill="white"/>
</clipPath>
</defs>
</svg>
