<svg width="24" height="24" viewBox="0 0 24 24" fill="none" xmlns="http://www.w3.org/2000/svg">
<g clip-path="url(#clip0_39_3094)">
<path d="M18.89 17.2237C18.3433 17.2304 17.9467 17.6604 17.9433 18.2504V19.3004C17.9433 19.8171 17.7133 20.0471 17.2 20.0471L13.05 20.0537C12.9733 20.0537 12.9467 20.0471 12.95 20.0471C12.9467 20.0404 12.9367 20.0171 12.9367 19.9404L12.9433 4.03706V3.95039C12.9433 3.95039 12.9667 3.95039 12.9833 3.95039L17.2733 3.95706C17.6833 3.95706 17.94 4.21706 17.94 4.63039V5.73039C17.94 6.34373 18.3333 6.77706 18.8933 6.78373C19.4433 6.78373 19.8433 6.34706 19.8467 5.74373V4.62039C19.8467 4.39706 19.8233 4.18039 19.77 3.97039C19.48 2.83039 18.4967 2.06039 17.3267 2.05373H12.9367C12.9367 2.05373 12.9333 2.01706 12.9367 1.96373C12.95 1.82706 12.9467 1.21706 12.9433 1.08373V0.977059C12.93 0.357059 12.46 -0.0796073 11.83 0.00705934L2.33667 1.37373C0.896667 1.57373 0 2.58706 0 4.02373V20.0504C0 21.3671 0.87 22.3971 2.16333 22.6037L11.8367 23.9904C11.89 23.9971 11.94 24.0004 11.99 24.0004C12.5367 24.0004 12.94 23.5904 12.95 23.0204V22.9137C12.9567 22.7804 12.96 22.1771 12.95 22.0404C12.9433 21.9871 12.9467 21.9637 12.9433 21.9571C12.9533 21.9571 12.9833 21.9471 13.0467 21.9471H17.3133C18.5833 21.9471 19.6133 21.0737 19.8133 19.8271L19.8533 18.2371C19.8567 17.9471 19.7567 17.6837 19.5733 17.4937C19.4 17.3204 19.1633 17.2204 18.8967 17.2204L18.89 17.2237ZM11.0433 21.8137C11.0433 21.8437 11.0433 21.9071 11.04 21.9504C11.0033 21.9504 10.9567 21.9404 10.8933 21.9304L2.38667 20.7104C2.15333 20.6737 1.92667 20.4071 1.90667 20.1604V4.06039C1.90667 3.53373 2.05333 3.36039 2.56 3.28039L10.9467 2.06039C10.9767 2.05373 11.0033 2.05039 11.0267 2.05039L11.0333 2.04039C11.0333 2.04039 11.0467 2.06373 11.0467 2.14039L11.04 21.8137H11.0433Z" fill="#3B82C4"/>
<path d="M23.7099 11.3896C22.6965 10.3729 21.6799 9.35293 20.6632 8.33959C20.3032 7.97959 19.8299 7.95959 19.5032 8.27959C19.1699 8.60626 19.1899 9.08959 19.5565 9.45959C20.0799 9.98293 20.6032 10.5063 21.1232 11.0296C21.1699 11.0763 21.2465 11.1096 21.2499 11.2096H15.3865C15.0332 11.2096 14.7632 11.3463 14.6099 11.6696C14.3532 12.2063 14.7465 12.7863 15.3699 12.7896H21.3132C20.6865 13.4163 20.1099 13.9863 19.5365 14.5629C19.1932 14.9096 19.1799 15.3829 19.4932 15.7063C19.8132 16.0363 20.2965 16.0263 20.6532 15.6729C21.6765 14.6529 22.6999 13.6296 23.7199 12.6063C24.1032 12.2196 24.0999 11.7796 23.7132 11.3929L23.7099 11.3896Z" fill="#3B82C4"/>
<path d="M8.02986 9.76993C7.55986 9.76327 7.19319 10.1266 7.18652 10.6066V13.3899C7.19319 13.8599 7.55319 14.2199 8.00652 14.2266C8.47319 14.2333 8.83986 13.8699 8.85319 13.3866V10.6033C8.84319 10.1333 8.48652 9.77327 8.02986 9.7666V9.76993Z" fill="#3B82C4"/>
</g>
<defs>
<clipPath id="clip0_39_3094">
<rect width="24" height="24" fill="white"/>
</clipPath>
</defs>
</svg>
