<svg width="14" height="14" viewBox="0 0 14 14" fill="none" xmlns="http://www.w3.org/2000/svg">
<g clip-path="url(#clip0_53_709)">
<path d="M13.3914 2.10194H11.2019V0.7C11.2019 0.313056 10.8889 0 10.5019 0C10.115 0 9.80194 0.313056 9.80194 0.7H9.80583V2.10194H4.20389V0.7C4.20389 0.313056 3.89083 0 3.50389 0C3.11694 0 2.80389 0.313056 2.80389 0.7H2.80778V2.10194H0.608611C0.274167 2.10194 0 2.38778 0 2.74556V13.3583C0 13.7142 0.270278 14 0.608611 14H13.3875C13.7219 14 13.9961 13.7103 13.9961 13.3583V2.74556H14C14 2.38972 13.7297 2.10194 13.3914 2.10194ZM12.7808 12.7108H1.21917V5.95778H12.7828V12.7108H12.7808ZM12.7808 4.83389H1.21917V3.38722H12.7828V4.83389H12.7808Z" fill="white"/>
<path d="M11.7038 9.60547H8.90381V11.7035H11.7038V9.60547Z" fill="white"/>
</g>
<defs>
<clipPath id="clip0_53_709">
<rect width="14" height="14" fill="white"/>
</clipPath>
</defs>
</svg>
