<svg width="24" height="25" viewBox="0 0 24 25" fill="none" xmlns="http://www.w3.org/2000/svg">
<g clip-path="url(#clip0_39_3068)">
<path d="M23 22.5H5C3.34333 22.5 2 21.1567 2 19.5V1.5C2 0.946667 1.55333 0.5 1 0.5C0.446667 0.5 0 0.946667 0 1.5V19.5C0 22.26 2.24 24.4967 5 24.5H23C23.5533 24.5 24 24.0533 24 23.5C24 22.9467 23.5533 22.5 23 22.5Z" fill="#3B82C4"/>
<path d="M6 20.5C6.55333 20.5 7 20.0533 7 19.5V12.5C7 11.9467 6.55333 11.5 6 11.5C5.44667 11.5 5 11.9467 5 12.5V19.5C5 20.0533 5.44667 20.5 6 20.5Z" fill="#3B82C4"/>
<path d="M10 10.5V19.5C10 20.0533 10.4467 20.5 11 20.5C11.5533 20.5 12 20.0533 12 19.5V10.5C12 9.94667 11.5533 9.5 11 9.5C10.4467 9.5 10 9.94667 10 10.5Z" fill="#3B82C4"/>
<path d="M15 13.5V19.5C15 20.0533 15.4467 20.5 16 20.5C16.5533 20.5 17 20.0533 17 19.5V13.5C17 12.9467 16.5533 12.5 16 12.5C15.4467 12.5 15 12.9467 15 13.5Z" fill="#3B82C4"/>
<path d="M20 9.5V19.5C20 20.0533 20.4467 20.5 21 20.5C21.5533 20.5 22 20.0533 22 19.5V9.5C22 8.94667 21.5533 8.5 21 8.5C20.4467 8.5 20 8.94667 20 9.5Z" fill="#3B82C4"/>
<path d="M6.00014 9.50034C6.26681 9.50034 6.52014 9.39367 6.70681 9.20701L10.2935 5.62034C10.6901 5.24367 11.3101 5.24367 11.7068 5.62034L13.8801 7.79367C15.0501 8.96367 16.9501 8.96367 18.1235 7.79367L23.7101 2.20701C24.0935 1.81034 24.0835 1.17701 23.6868 0.793672C23.3001 0.420339 22.6835 0.420339 22.2968 0.793672L16.7101 6.38034C16.3201 6.77034 15.6868 6.77034 15.2968 6.38034L13.1235 4.21034C11.9535 3.04034 10.0535 3.04034 8.88014 4.21034L5.29348 7.797C4.90348 8.18701 4.90348 8.82034 5.29348 9.21034C5.48014 9.39701 5.73348 9.50367 6.00014 9.50367V9.50034Z" fill="#3B82C4"/>
</g>
<defs>
<clipPath id="clip0_39_3068">
<rect width="24" height="24" fill="white" transform="translate(0 0.5)"/>
</clipPath>
</defs>
</svg>
