<svg width="15" height="18" viewBox="0 0 15 18" fill="none" xmlns="http://www.w3.org/2000/svg">
<g clip-path="url(#clip0_39_3014)">
<path d="M11.2494 6.00278H3.75062V5.25278C3.75062 3.18278 5.4284 1.50278 7.49875 1.50278C8.86398 1.50278 10.1217 2.24278 10.7818 3.43778C10.9818 3.80028 11.4394 3.93028 11.802 3.73028C12.1645 3.53028 12.2945 3.07278 12.0945 2.71028C10.6893 0.172783 7.49375 -0.747217 4.95583 0.657783C3.28555 1.58278 2.24787 3.34278 2.24787 5.25278V6.32028C0.885147 6.91528 0 8.26278 0 9.75028V14.2503C0 16.3203 1.68028 17.9978 3.75062 18.0003H11.2519C13.3222 18.0003 15 16.3203 15.0025 14.2503V9.75028C15.0025 7.68028 13.3222 6.00278 11.2519 6.00028L11.2494 6.00278ZM13.4998 14.2503C13.4998 15.4928 12.4921 16.5003 11.2494 16.5003H3.75062C2.50792 16.5003 1.50025 15.4928 1.50025 14.2503V9.75028C1.50025 8.50778 2.50792 7.50028 3.75062 7.50028H11.2519C12.4946 7.50028 13.5022 8.50778 13.5022 9.75028V14.2503H13.4998Z" fill="#4A4A4B"/>
<path d="M7.5011 10.5C7.08603 10.5 6.75098 10.835 6.75098 11.25V12.75C6.75098 13.165 7.08603 13.5 7.5011 13.5C7.91617 13.5 8.25123 13.165 8.25123 12.75V11.25C8.25123 10.835 7.91617 10.5 7.5011 10.5Z" fill="#4A4A4B"/>
</g>
<defs>
<clipPath id="clip0_39_3014">
<rect width="15" height="18" fill="white"/>
</clipPath>
</defs>
</svg>
