<svg width="24" height="25" viewBox="0 0 24 25" fill="none" xmlns="http://www.w3.org/2000/svg">
<g clip-path="url(#clip0_39_3081)">
<path d="M16.4432 2.05626H23.2198C23.6498 2.05626 23.9965 1.7096 23.9965 1.2796C23.9965 0.849596 23.6498 0.50293 23.2198 0.50293H16.4432C16.0132 0.50293 15.6665 0.849596 15.6665 1.2796C15.6665 1.7096 16.0132 2.05626 16.4432 2.05626Z" fill="#3B82C4"/>
<path d="M23.2233 3.61035H16.4466C16.0166 3.61035 15.6699 3.95702 15.6699 4.38702C15.6699 4.81702 16.0166 5.16368 16.4466 5.16368H23.2233C23.6533 5.16368 23.9999 4.81702 23.9999 4.38702C23.9999 3.95702 23.6533 3.61035 23.2233 3.61035Z" fill="#3B82C4"/>
<path d="M23.2233 6.62695H16.4466C16.0166 6.62695 15.6699 6.97362 15.6699 7.40362C15.6699 7.83362 16.0166 8.18029 16.4466 8.18029H23.2233C23.6533 8.18029 23.9999 7.83362 23.9999 7.40362C23.9999 6.97362 23.6533 6.62695 23.2233 6.62695Z" fill="#3B82C4"/>
<path d="M8 14.9004C3.58 14.9004 0 18.4837 0 22.9004V23.4337C0 24.0237 0.476667 24.5004 1.06667 24.5004C1.65667 24.5004 2.13333 24.0237 2.13333 23.4337V22.9004C2.13333 19.6604 4.76 17.0337 8 17.0337C11.24 17.0337 13.8667 19.6604 13.8667 22.9004V23.4337C13.8667 24.0237 14.3433 24.5004 14.9333 24.5004C15.5233 24.5004 16 24.0237 16 23.4337V22.9004C16 18.4837 12.42 14.9004 8 14.9004Z" fill="#3B82C4"/>
<path d="M8.0002 12.767C10.6502 12.767 12.7969 10.617 12.8002 7.96699C12.8002 5.31699 10.6502 3.16699 8.0002 3.16699C5.3502 3.16699 3.2002 5.31699 3.2002 7.96699C3.2002 10.617 5.3502 12.767 8.0002 12.767ZM8.0002 5.30033C9.47353 5.30033 10.6669 6.49366 10.6669 7.96699C10.6669 9.44033 9.47353 10.6337 8.0002 10.6337C6.52686 10.6337 5.33353 9.44033 5.33353 7.96699C5.33353 6.49366 6.52686 5.30033 8.0002 5.30033Z" fill="#3B82C4"/>
</g>
<defs>
<clipPath id="clip0_39_3081">
<rect width="24" height="24" fill="white" transform="translate(0 0.5)"/>
</clipPath>
</defs>
</svg>
