<svg width="18" height="18" viewBox="0 0 18 18" fill="none" xmlns="http://www.w3.org/2000/svg">
<g clip-path="url(#clip0_39_1133)">
<path d="M11.1728 6.46752C10.9328 6.19002 10.5378 6.18752 10.2878 6.44752L8.85277 8.01502L7.41777 6.44752C7.17527 6.19002 6.79027 6.19002 6.54777 6.44752C6.29777 6.71252 6.29277 7.14502 6.53277 7.41502L7.96777 8.98002L6.53277 10.5475C6.29777 10.81 6.29777 11.23 6.53277 11.4975C6.77277 11.775 7.16777 11.7775 7.41777 11.5175L8.85277 9.95002L10.2878 11.515C10.5303 11.7725 10.9153 11.7725 11.1578 11.515C11.4078 11.25 11.4128 10.8175 11.1728 10.5475L9.73777 8.98752L11.1728 7.42002C11.4078 7.15752 11.4078 6.73752 11.1728 6.47002V6.46752Z" fill="#4D4D4D"/>
<path d="M16.29 5.2475C17.11 5.2475 17.77 4.575 17.77 3.7475V0.7475C17.77 0.3375 17.435 0 17.03 0C16.625 0 16.29 0.3375 16.29 0.7475V3.7475H13.3275C13.3125 3.7475 13.305 3.755 13.29 3.755C12.3075 1.295 9.5425 0.1025 7.1125 1.0975C5.92 1.5875 4.97 2.545 4.4875 3.755C4.4725 3.755 4.46 3.7475 4.4425 3.7475H1.48V0.7475C1.48 0.3375 1.15 0 0.74 0C0.33 0 0 0.3375 0 0.7475V3.7475C0 4.575 0.665 5.2475 1.48 5.2475H4.0575L3.31 8.2475H0.74C0.3325 8.25 0 8.585 0 9C0 9.415 0.335 9.7475 0.74 9.7475H2.9375L2.8275 10.1775L2.8125 10.2725C2.7775 10.53 2.7625 10.79 2.76 11.0475C2.76 11.625 2.84 12.1975 3 12.75H1.48C0.66 12.7525 0 13.425 0 14.25V17.25C0 17.665 0.335 18.0025 0.74 18.0025C1.145 18.0025 1.48 17.665 1.48 17.255V14.255H3.6475C5.3825 17.1825 9.135 18.1325 12.0275 16.37C12.885 15.85 13.6025 15.12 14.115 14.255H16.2825V17.255C16.2825 17.67 16.6175 18.0025 17.0225 18.0025C17.4275 18.0025 17.7625 17.665 17.7625 17.255V14.255C17.7625 13.4275 17.0975 12.755 16.2825 12.755H14.7625C14.9225 12.2 15.0025 11.6275 15.0025 11.05C14.9975 10.7925 14.9825 10.5375 14.95 10.28L14.82 9.755H17.0225C17.4325 9.755 17.7625 9.4175 17.7625 9.0075C17.7625 8.5975 17.4275 8.26 17.0225 8.26H14.4475L13.7 5.26H16.285V5.2525L16.29 5.2475ZM8.885 15.7525C6.3225 15.75 4.245 13.645 4.24 11.0475C4.24 10.865 4.255 10.6825 4.275 10.505L5.78 4.4825C6.3825 2.7475 8.2625 1.8325 9.98 2.4425C10.91 2.7725 11.6475 3.51 11.9825 4.4525L13.4975 10.505C13.5175 10.6825 13.5325 10.865 13.5325 11.0475C13.5325 13.6425 11.4525 15.75 8.8875 15.7525H8.885Z" fill="#4D4D4D"/>
</g>
<defs>
<clipPath id="clip0_39_1133">
<rect width="17.7725" height="18" fill="white"/>
</clipPath>
</defs>
</svg>
