<svg width="14" height="14" viewBox="0 0 14 14" fill="none" xmlns="http://www.w3.org/2000/svg">
<g clip-path="url(#clip0_53_663)">
<path d="M13.829 12.9631L10.8735 10.0037C13.0163 7.38258 12.6274 3.52286 10.0082 1.38203C7.38515 -0.758808 3.52543 -0.371864 1.38459 2.24925C-0.758183 4.87036 -0.371239 8.73008 2.24987 10.8709C4.50737 12.7142 7.74876 12.7142 10.0063 10.8709L12.9618 13.8265C13.2049 14.0617 13.5918 14.0559 13.8271 13.8129C14.0565 13.5776 14.0565 13.2023 13.8271 12.9631H13.829ZM6.13876 10.7737C3.57793 10.7737 1.50515 8.69703 1.50515 6.13814C1.50515 3.57925 3.57793 1.50453 6.13876 1.50453C8.69959 1.50453 10.7763 3.5773 10.7763 6.13814C10.7724 8.69897 8.69959 10.7717 6.13876 10.7737Z" fill="white"/>
</g>
<defs>
<clipPath id="clip0_53_663">
<rect width="14" height="14" fill="white"/>
</clipPath>
</defs>
</svg>
