<svg width="19" height="22" viewBox="0 0 19 22" fill="none" xmlns="http://www.w3.org/2000/svg">
<path d="M9.26198 11.8172C6.22437 11.8172 3.75342 9.34627 3.75342 6.30865C3.75342 3.27104 6.22437 0.799805 9.26198 0.799805C12.2996 0.799805 14.7706 3.27104 14.7706 6.30837C14.7706 9.34627 12.2993 11.8172 9.26198 11.8172ZM9.26198 2.43492C7.12593 2.43492 5.38825 4.1726 5.38825 6.30865C5.38825 8.4447 7.12622 10.1827 9.26198 10.1827C11.398 10.1827 13.136 8.4447 13.136 6.30865C13.136 4.1726 11.398 2.43492 9.26198 2.43492Z" fill="white"/>
<path d="M17.7061 21.2001C17.2553 21.2001 16.8886 20.8332 16.8886 20.3827C16.8886 16.1772 13.4674 12.7559 9.26188 12.7559C5.05637 12.7559 1.63512 16.1772 1.63512 20.3827C1.63512 20.8332 1.2682 21.2001 0.817417 21.2001C0.366633 21.2001 0 20.8332 0 20.3827C0 17.9092 0.963333 15.5833 2.71292 13.834C4.4625 12.0844 6.7881 11.1211 9.2616 11.1211C11.7351 11.1211 14.0607 12.0844 15.8106 13.834C17.5599 15.5833 18.5235 17.9092 18.5235 20.3827C18.5235 20.8332 18.1571 21.2001 17.7061 21.2001Z" fill="white"/>
</svg>
