<svg width="24" height="25" viewBox="0 0 24 25" fill="none" xmlns="http://www.w3.org/2000/svg">
<g clip-path="url(#clip0_39_3064)">
<path d="M12 0.5C5.37333 0.5 0 5.87333 0 12.5C0 19.1267 5.37333 24.5 12 24.5C18.6267 24.5 24 19.1267 24 12.5C23.9933 5.87667 18.6233 0.506667 12 0.5ZM21.5733 9.62L12.6667 11.3533C12.5267 11.1367 12.4033 10.91 12.3 10.6733L8.95667 2.97333C14.21 1.29 19.8333 4.18333 21.5167 9.43667C21.5367 9.49667 21.5567 9.56 21.5733 9.62ZM12 22.5C6.48 22.5 2.00333 18.03 2 12.51C2 8.88667 3.96 5.54667 7.12333 3.78L10.46 11.47C10.9333 12.5633 11.68 13.5167 12.6267 14.2433L19.28 19.3367C17.3967 21.3567 14.76 22.5033 11.9967 22.5033L12 22.5ZM20.5 17.7433L14.3733 13.0567L21.9533 11.5833C21.98 11.8833 22 12.19 22 12.5C22 14.3533 21.48 16.17 20.4967 17.7433H20.5Z" fill="#3B82C4"/>
</g>
<defs>
<clipPath id="clip0_39_3064">
<rect width="24" height="24" fill="white" transform="translate(0 0.5)"/>
</clipPath>
</defs>
</svg>
