<svg width="15" height="18" viewBox="0 0 15 18" fill="none" xmlns="http://www.w3.org/2000/svg">
<g clip-path="url(#clip0_96_16)">
<path d="M12.75 6.3175V5.25C12.75 2.35 10.4 0 7.5 0C4.6 0 2.25 2.35 2.25 5.25V6.3175C0.885 6.915 0 8.26 0 9.75V14.25C0 16.32 1.68 17.9975 3.75 18H11.25C13.32 18 14.9975 16.32 15 14.25V9.75C15 8.26 14.115 6.915 12.75 6.3175ZM3.75 5.25C3.75 3.18 5.43 1.5 7.5 1.5C9.57 1.5 11.25 3.18 11.25 5.25V6H3.75V5.25ZM13.5 14.25C13.5 15.4925 12.4925 16.5 11.25 16.5H3.75C2.5075 16.5 1.5 15.4925 1.5 14.25V9.75C1.5 8.5075 2.5075 7.5 3.75 7.5H11.25C12.4925 7.5 13.5 8.5075 13.5 9.75V14.25Z" fill="#4A4A4B"/>
<path d="M7.5 10.5C7.085 10.5 6.75 10.835 6.75 11.25V12.75C6.75 13.165 7.085 13.5 7.5 13.5C7.915 13.5 8.25 13.165 8.25 12.75V11.25C8.25 10.835 7.915 10.5 7.5 10.5Z" fill="#4A4A4B"/>
</g>
<defs>
<clipPath id="clip0_96_16">
<rect width="15" height="18" fill="white"/>
</clipPath>
</defs>
</svg>
