<svg width="14" height="14" viewBox="0 0 14 14" fill="none" xmlns="http://www.w3.org/2000/svg">
<g clip-path="url(#clip0_53_701)">
<path d="M3.18292 9.55936C3.27625 9.55936 3.31903 9.52825 3.35987 9.45047C3.59514 9.01102 3.83431 8.57547 4.07737 8.13991C4.17459 7.96491 4.2582 7.78602 4.32042 7.59547C4.3632 7.69658 4.38459 7.78991 4.42737 7.89102C4.71514 8.42575 5.00487 8.95852 5.29264 9.4913C5.3082 9.52241 5.32181 9.55547 5.37042 9.55547C5.80598 9.55547 6.23959 9.55547 6.69653 9.55547C6.65764 9.48936 6.63237 9.44463 6.60514 9.39991C6.12875 8.63186 5.65625 7.86575 5.17598 7.09963C5.12542 7.01797 5.12737 6.96352 5.17598 6.8838C5.64459 6.12936 6.10931 5.37102 6.57209 4.61269C6.59542 4.5738 6.64014 4.54075 6.63042 4.48241C6.23375 4.48241 5.84487 4.4863 5.45403 4.48047C5.37431 4.48047 5.3432 4.51158 5.31014 4.5738C5.1682 4.84214 5.02042 5.10658 4.87653 5.37297C4.69375 5.70936 4.48959 6.03602 4.37875 6.44047C4.33792 6.32186 4.31653 6.2363 4.27764 6.15658C4.02098 5.61797 3.75848 5.0813 3.50181 4.54269C3.47459 4.48241 3.43181 4.48436 3.38125 4.48436H2.05903C2.09014 4.53686 2.10959 4.57186 2.12903 4.60686C2.58014 5.36714 3.03125 6.12741 3.49014 6.8838C3.54848 6.98102 3.55042 7.05102 3.48625 7.14825C2.99237 7.8988 2.50431 8.65325 2.01431 9.40769C1.98709 9.45241 1.94431 9.4913 1.93848 9.55936C2.35459 9.55936 2.76681 9.55547 3.17903 9.56325L3.18292 9.55936Z" fill="white"/>
<path d="M13.9942 2.36056C13.965 1.92306 13.6597 1.61972 13.2164 1.59056C13.1756 1.58667 13.1347 1.58667 13.0958 1.58667H8.75V0.538611C8.74417 0.250833 8.63917 0.105 8.37083 0.0116667C8.36111 0.00777778 8.35333 0.00777778 8.34361 0.00583333L8.12389 0L7.81472 0.0369444L0.476389 1.4C0.379167 1.4175 0.0797222 1.48167 0.00194444 1.79667C0.00194444 1.80444 0 1.81222 0 1.82V12.2344L0.00388889 12.2733C0.0544444 12.4775 0.204167 12.5417 0.435556 12.5883L8.08889 13.9961C8.12972 14 8.16861 14.0019 8.20361 14.0019C8.45056 14.0019 8.74417 13.9008 8.74806 13.4128V12.4075L13.0239 12.4114C13.3389 12.4114 13.5819 12.3278 13.7472 12.1644C13.9144 11.9972 14 11.7542 13.9981 11.4392L13.9922 2.36056H13.9942ZM7.71944 12.9344L1.00528 11.6686L0.995556 2.31583L7.71944 1.05778V12.9344ZM8.70333 11.4042V9.58611H11.2233C11.3497 9.58611 11.4508 9.485 11.4508 9.36055V9.01833C11.4508 8.89389 11.3497 8.79278 11.2233 8.79278H8.70333V7.41417H11.2233C11.3497 7.41417 11.4508 7.31306 11.4508 7.18861V6.84639C11.4508 6.72194 11.3497 6.62083 11.2233 6.62083H8.70528V5.19556H11.2233C11.3497 5.19556 11.4508 5.09444 11.4508 4.97V4.62583C11.4508 4.50139 11.3497 4.40222 11.2233 4.40222H8.70528V2.58611L12.9811 2.58222V11.4003H8.70333V11.4042Z" fill="white"/>
</g>
<defs>
<clipPath id="clip0_53_701">
<rect width="14" height="14" fill="white"/>
</clipPath>
</defs>
</svg>
