<svg width="24" height="23" viewBox="0 0 24 23" fill="none" xmlns="http://www.w3.org/2000/svg">
<g clip-path="url(#clip0_39_3077)">
<path d="M23.7435 8.70566C23.9768 8.5846 24.0701 8.29997 23.9468 8.06768C23.8235 7.83866 23.5335 7.74705 23.3001 7.8681L17.9968 10.6V7.93681L23.7468 4.9792C23.9068 4.89741 24.0035 4.73709 24.0035 4.56369C24.0035 4.39029 23.9035 4.22671 23.7468 4.14492L15.7968 0.0520298C15.6568 -0.0199474 15.4901 -0.0199474 15.3501 0.0520298L9.79012 2.91476L9.11679 2.57123C8.98012 2.50253 8.82012 2.49926 8.68345 2.56796L5.31012 4.23325C5.15012 4.31177 5.05012 4.46881 5.04679 4.64221C5.04012 4.81561 5.13679 4.9792 5.29012 5.06426L5.44679 5.1526L0.256787 7.82557C0.10012 7.90736 0.000120134 8.06441 0.000120134 8.24108C0.000120134 8.41775 0.10012 8.57479 0.256787 8.65658L8.20012 12.7462C8.27012 12.7822 8.34679 12.8018 8.42345 12.8018C8.50012 12.8018 8.57679 12.7822 8.64679 12.7462L13.2835 10.3579V13.021L8.41345 15.5271L0.69012 11.853C0.453453 11.7418 0.163453 11.8367 0.0467868 12.0722C-0.0665465 12.3045 0.0301201 12.5859 0.27012 12.7004L8.21345 16.4792C8.28012 16.5119 8.35012 16.525 8.42345 16.525C8.50012 16.525 8.57679 16.5086 8.64679 16.4727L13.2835 14.0843V16.2535L8.41345 18.7596L0.69012 15.0855C0.453453 14.9709 0.163453 15.0691 0.0467868 15.3047C-0.0665465 15.537 0.0301201 15.8216 0.27012 15.9361L8.21345 19.7149C8.28012 19.7476 8.35012 19.7607 8.42345 19.7607C8.50012 19.7607 8.57679 19.7443 8.64679 19.7084L13.2835 17.32V19.4924L8.41345 21.9985L0.69012 18.3244C0.453453 18.2099 0.163453 18.3081 0.0467868 18.5436C-0.0665465 18.7759 0.0301201 19.0573 0.27012 19.1718L8.21345 22.9539C8.28012 22.9833 8.35012 22.9997 8.42345 22.9997C8.50012 22.9997 8.57679 22.9833 8.64679 22.9473L13.2835 20.5623V20.7978C13.2835 20.9647 13.3735 21.1185 13.5168 21.2003C13.5935 21.2461 13.6768 21.2657 13.7635 21.2657C13.8401 21.2657 13.9201 21.2493 13.9901 21.2101L17.7401 19.2045C17.8935 19.1227 17.9901 18.9624 17.9901 18.789V18.1347L23.7401 15.1738C23.9735 15.0527 24.0668 14.7681 23.9435 14.5358C23.8201 14.3068 23.5301 14.2152 23.2968 14.3362L17.9935 17.0681V14.8924L23.7435 11.9315C23.9768 11.8105 24.0701 11.5259 23.9468 11.2936C23.8235 11.0645 23.5335 10.9729 23.3001 11.094L17.9968 13.8259V11.6567L23.7468 8.69584L23.7435 8.70566ZM18.4968 4.9792L16.1735 6.17337L12.4235 4.25943L14.5335 3.17322C15.0201 3.3499 15.5935 3.35317 16.0868 3.17322L18.4968 4.4132C18.4535 4.51462 18.4401 4.6095 18.4401 4.69456C18.4401 4.76981 18.4535 4.86796 18.5001 4.9792H18.4968ZM15.5735 1.00082L22.4835 4.56042L17.7568 6.99456C17.7568 6.99456 17.7435 6.9782 17.7335 6.97166L17.2101 6.70338L19.5035 5.5223C19.6601 5.44051 19.7601 5.28019 19.7601 5.10679C19.7601 4.9334 19.6668 4.77963 19.5168 4.69783C19.6668 4.61277 19.7601 4.459 19.7601 4.28887C19.7601 4.11874 19.6601 3.95189 19.5035 3.8701L16.3268 2.23425C16.1868 2.16227 16.0201 2.16227 15.8801 2.23425C15.5368 2.41092 15.0701 2.40438 14.7368 2.23425C14.6001 2.16227 14.4335 2.16554 14.2901 2.23425L11.3868 3.72941L10.8268 3.4415L15.5701 0.997549L15.5735 1.00082ZM5.50345 7.82557L7.97012 6.55615L11.5635 8.55189L9.46345 9.63155C9.22012 9.54321 8.95679 9.49413 8.69012 9.49413C8.42345 9.49413 8.16012 9.53994 7.91679 9.62827L5.50679 8.38503C5.55012 8.27706 5.56345 8.17891 5.56345 8.10694C5.56345 8.02187 5.55012 7.92699 5.50679 7.82557H5.50345ZM8.42345 11.8007L1.51345 8.24108L6.44012 5.70551L6.97679 5.99997L4.49012 7.2792C4.33012 7.36099 4.23345 7.5213 4.23345 7.69798C4.23345 7.87465 4.32679 8.02514 4.47679 8.10694C4.33012 8.192 4.24012 8.34577 4.24012 8.51263C4.24012 8.67948 4.34012 8.84961 4.49679 8.92813L7.67345 10.564C7.81345 10.636 7.98012 10.636 8.12012 10.564C8.45012 10.3939 8.91679 10.3906 9.25679 10.564C9.32679 10.6 9.40345 10.6163 9.48012 10.6163C9.55679 10.6163 9.63345 10.6 9.70345 10.564L12.5568 9.09499L13.0935 9.39271L8.42679 11.7941L8.42345 11.8007ZM17.0335 17.2055V17.5654L14.2435 19.0017V9.2324C14.2435 9.06227 14.1501 8.90523 14.0001 8.82344L6.54679 4.68475L8.89679 3.5233L17.0335 7.68162V17.2088V17.2055Z" fill="#3B82C4"/>
</g>
<defs>
<clipPath id="clip0_39_3077">
<rect width="24" height="23" fill="white"/>
</clipPath>
</defs>
</svg>
