<svg width="9" height="12" viewBox="0 0 9 12" fill="none" xmlns="http://www.w3.org/2000/svg">
<g clip-path="url(#clip0_39_3032)">
<path d="M9 0.272445C9 -0.0443047 8.76222 -0.299805 8.47106 -0.299805H0.528936C0.236161 -0.299805 0 -0.0443047 0 0.272445V11.7262C0 12.0429 0.236161 12.2984 0.528936 12.2984H8.46945C8.76222 12.2984 8.99838 12.0429 8.99838 11.7262V0.272445H9ZM7.94051 11.1557H1.05949V0.846445H7.94213V11.1557H7.94051ZM2.38587 9.07845C2.38587 8.80194 2.59292 8.57794 2.84849 8.57794H5.99946C6.25503 8.57794 6.46208 8.80194 6.46208 9.07845C6.46208 9.35495 6.25503 9.57895 5.99946 9.57895H2.84849C2.59292 9.57895 2.38587 9.35495 2.38587 9.07845ZM2.38587 7.0747C2.38587 6.79819 2.59292 6.57419 2.84849 6.57419H5.99946C6.25503 6.57419 6.46208 6.79819 6.46208 7.0747C6.46208 7.35119 6.25503 7.5752 5.99946 7.5752H2.84849C2.59292 7.5752 2.38587 7.35119 2.38587 7.0747ZM6.48472 2.92195C6.48472 2.64545 6.27768 2.42145 6.02211 2.42145H2.84526C2.58968 2.42145 2.38264 2.64545 2.38264 2.92195V4.9257C2.38264 5.2022 2.58968 5.4262 2.84526 5.4262H6.02211C6.27768 5.4262 6.48472 5.2022 6.48472 4.9257V2.92195ZM3.30787 3.42245H5.55787V4.4252H3.30787V3.42245Z" fill="#8590A6"/>
</g>
<defs>
<clipPath id="clip0_39_3032">
<rect width="9" height="12" fill="white"/>
</clipPath>
</defs>
</svg>
