<svg width="22" height="21" viewBox="0 0 22 21" fill="none" xmlns="http://www.w3.org/2000/svg">
<g clip-path="url(#clip0_41_4075)">
<path d="M21.89 7.64119C21.6822 6.89866 21.2392 6.32772 20.6036 5.99389C19.7878 5.56022 18.8284 5.61326 18.1653 5.73182L16.7628 0.708791C16.6681 0.365603 16.3961 0.103532 16.06 0.0255348C15.7209 -0.0555824 15.3633 0.0598536 15.1311 0.325045C11.7058 4.22491 10.2972 5.17336 6.52974 6.86746L3.56585 7.74103C0.956405 8.50852 -0.556096 11.3195 0.192516 13.9995C0.556127 15.3037 1.3964 16.3831 2.55446 17.0383C3.2939 17.4564 4.10363 17.6685 4.92252 17.6685C5.31057 17.6685 5.69863 17.6186 6.08363 17.5219L6.40446 18.67C6.57252 19.2722 6.89641 19.8213 7.34252 20.2487L7.84057 20.7291C8.02696 20.907 8.26224 20.9975 8.49752 20.9975C8.75113 20.9975 9.00474 20.8945 9.19113 20.6917C9.55474 20.2986 9.5364 19.6809 9.15446 19.3096L8.65641 18.8291C8.46085 18.6388 8.31724 18.3986 8.2439 18.1334L7.92307 16.9884L9.30113 16.5828C13.2703 15.9775 15.0578 16.0212 19.91 17.4377C19.9986 17.4626 20.0842 17.4751 20.1728 17.4751C20.4234 17.4751 20.6678 17.3753 20.8481 17.1881C21.0925 16.9385 21.1872 16.5703 21.0925 16.2303L19.6931 11.2166C20.3225 10.9732 21.1628 10.5209 21.6364 9.73152C22.0092 9.11066 22.0947 8.38685 21.887 7.64119H21.89ZM3.48029 15.3317C2.7714 14.9293 2.25502 14.2678 2.03196 13.466C1.57057 11.8156 2.49946 10.0903 4.09752 9.61609L6.25168 8.98275L7.24168 12.5269L7.92002 14.9605L5.75974 15.5969C4.98974 15.8247 4.18002 15.7311 3.48029 15.3349V15.3317ZM13.2214 14.2585C12.152 14.2585 11.0672 14.3614 9.79002 14.5393L8.39363 9.54121L8.05141 8.31197C11.1039 6.89554 12.7295 5.80046 15.3908 2.92392L18.7886 15.1009C16.5184 14.505 14.8897 14.2585 13.2183 14.2585H13.2214ZM20.0078 8.71132C19.852 8.97027 19.5036 9.18242 19.1675 9.32906L18.6939 7.62871C19.0545 7.58504 19.4547 7.58816 19.7236 7.72855C19.8397 7.79095 19.9711 7.89078 20.0506 8.17781C20.13 8.45549 20.075 8.60212 20.0109 8.71132H20.0078ZM13.9547 7.09521C14.2267 7.47896 14.1411 8.01246 13.7683 8.29013C12.8945 8.93595 11.8861 9.47569 11.8433 9.49753C11.7211 9.56305 11.5867 9.59425 11.4583 9.59425C11.1558 9.59425 10.8656 9.42577 10.7158 9.13562C10.502 8.71756 10.6608 8.19965 11.0703 7.98126C11.0795 7.97502 12.0145 7.47584 12.7875 6.9049C13.1633 6.62723 13.6858 6.71459 13.9578 7.09521H13.9547Z" fill="#F6B500"/>
</g>
<defs>
<clipPath id="clip0_41_4075">
<rect width="22" height="21" fill="white"/>
</clipPath>
</defs>
</svg>
