<svg width="16" height="16" viewBox="0 0 16 16" fill="none" xmlns="http://www.w3.org/2000/svg">
<g clip-path="url(#clip0_39_1124)">
<path d="M15.9015 5.99187C15.6215 5.10032 14.7908 4.49743 13.8566 4.50765H10.9432L10.0583 1.74987C9.69567 0.618095 8.48434 -0.00501585 7.35256 0.357651C6.69079 0.569651 6.17234 1.08832 5.96034 1.74987L5.07545 4.50765H2.16234C0.973897 4.50921 0.0118966 5.4741 0.0136743 6.66232C0.0145632 7.34765 0.342119 7.99165 0.895452 8.39632L3.26656 10.1299L2.36501 12.9217C2.06567 13.8108 2.38701 14.791 3.15434 15.3308C3.90879 15.8879 4.93945 15.8825 5.68812 15.3181L8.00923 13.6097L10.3308 15.3159C11.2881 16.0199 12.635 15.8148 13.3392 14.8574C13.749 14.3001 13.8661 13.5797 13.6537 12.9214L12.7521 10.1297L15.1259 8.3961C15.8863 7.85343 16.2015 6.87676 15.9015 5.99187ZM14.3406 7.31943H14.3392L11.5761 9.33921C11.3432 9.50898 11.2459 9.80921 11.3348 10.0834L12.385 13.3305C12.5239 13.7605 12.2877 14.2217 11.8577 14.3603C11.6075 14.441 11.3335 14.3965 11.1215 14.2405L8.40434 12.2403C8.16945 12.0679 7.84967 12.0679 7.61501 12.2403L4.89767 14.2405C4.53545 14.5108 4.02279 14.4363 3.75256 14.0741C3.59345 13.8608 3.5479 13.5834 3.63079 13.3303L4.68434 10.0832C4.77301 9.80898 4.67567 9.50898 4.44301 9.33898L1.67967 7.31943C1.31523 7.05254 1.2359 6.54054 1.50301 6.17587C1.65701 5.96565 1.9019 5.84143 2.16256 5.84121H5.56301C5.85279 5.84121 6.10923 5.65409 6.19767 5.37832L7.23123 2.15698C7.36967 1.72676 7.83056 1.49032 8.26079 1.62898C8.51145 1.70965 8.70812 1.90632 8.78878 2.15698L9.82234 5.37832C9.91101 5.65409 10.1675 5.84121 10.457 5.84121H13.8577C14.3095 5.84143 14.6755 6.2081 14.6752 6.65987C14.6752 6.92054 14.5508 7.16543 14.3406 7.31943Z" fill="#9B9B9B"/>
</g>
<defs>
<clipPath id="clip0_39_1124">
<rect width="16" height="16" fill="white"/>
</clipPath>
</defs>
</svg>
