<svg width="24" height="25" viewBox="0 0 24 25" fill="none" xmlns="http://www.w3.org/2000/svg">
<g clip-path="url(#clip0_39_3089)">
<path d="M12.0002 7.47656C9.22688 7.47656 6.97021 9.73323 6.97021 12.5066C6.97021 15.2799 9.22688 17.5366 12.0002 17.5366C14.7735 17.5366 17.0302 15.2799 17.0302 12.5066C17.0302 9.73323 14.7735 7.47656 12.0002 7.47656ZM12.0002 15.6866C10.2435 15.6866 8.81688 14.2566 8.81688 12.5032C8.81688 10.7499 10.2435 9.3199 12.0002 9.3199C13.7569 9.3199 15.1835 10.7466 15.1835 12.5032C15.1835 14.2599 13.7569 15.6866 12.0002 15.6866Z" fill="#3B82C4"/>
<path d="M23.8932 10.7633C23.8398 10.35 23.5198 10.0267 23.1065 9.96667L21.2732 9.70667C21.0998 9.13333 20.8732 8.57667 20.5965 8.04667L21.7398 6.54C21.9932 6.20667 21.9898 5.74667 21.7365 5.41667C21.7165 5.39 21.2232 4.75667 20.5832 4.11333L20.4832 4.01333C19.8432 3.37333 19.2098 2.88 19.1798 2.86C18.8498 2.60667 18.3932 2.60333 18.0598 2.85333L16.5765 3.96667C16.0498 3.68333 15.4965 3.45 14.9265 3.27L14.6698 1.39667C14.6132 0.983333 14.2865 0.66 13.8732 0.606667C13.8398 0.603333 13.0432 0.5 12.1365 0.5H11.9932C11.0865 0.5 10.2898 0.6 10.2565 0.606667C9.84316 0.66 9.51983 0.98 9.45983 1.39333L9.19983 3.22667C8.6265 3.4 8.07316 3.62333 7.53983 3.9L6.03316 2.75667C5.69983 2.50333 5.23983 2.50667 4.90983 2.76333C4.88316 2.78333 4.24983 3.27667 3.6065 3.91667L3.5065 4.01667C2.8665 4.65667 2.37316 5.29333 2.35316 5.32C2.09983 5.65 2.0965 6.10667 2.3465 6.44L3.45983 7.92C3.1765 8.44667 2.93983 9 2.75983 9.57L0.889831 9.82667C0.476497 9.88333 0.153164 10.21 0.0998307 10.6233C0.0964974 10.6567 -0.00683594 11.4533 -0.00683594 12.36V12.5033C-0.00683594 13.41 0.0931641 14.2067 0.0998307 14.24C0.153164 14.6533 0.473164 14.9767 0.886497 15.0367L2.7165 15.2967C2.88983 15.87 3.11316 16.4267 3.38983 16.96L2.24983 18.4633C1.99983 18.7967 1.99983 19.2533 2.2565 19.5867C2.2765 19.6133 2.76983 20.2467 3.40983 20.89L3.50983 20.99C4.14983 21.63 4.7865 22.1233 4.81316 22.1433C5.14316 22.3967 5.59983 22.4 5.93316 22.15L7.40983 21.04C7.93983 21.3267 8.49316 21.56 9.0665 21.7433L9.32316 23.61C9.37983 24.0233 9.7065 24.3467 10.1198 24.4C10.1532 24.4033 10.9498 24.5033 11.8565 24.5033H11.9998C12.9065 24.5033 13.7032 24.4033 13.7365 24.3967C14.1498 24.3433 14.4732 24.0233 14.5332 23.61L14.7932 21.7733C15.3665 21.6 15.9198 21.3767 16.4532 21.1033L17.9632 22.25C18.2965 22.5033 18.7565 22.5 19.0865 22.2433C19.1132 22.2233 19.7465 21.73 20.3898 21.09L20.4898 20.99C21.1298 20.35 21.6232 19.7133 21.6432 19.6867C21.8965 19.3567 21.8998 18.9 21.6498 18.5667L20.5398 17.0867C20.8265 16.5567 21.0598 16.0067 21.2398 15.4333L23.1098 15.1767C23.5232 15.12 23.8465 14.7933 23.8998 14.38C23.9032 14.3467 24.0065 13.55 24.0065 12.6433V12.5C24.0065 11.5933 23.9065 10.7967 23.8998 10.7633H23.8932ZM22.1532 12.6433C22.1532 12.93 22.1398 13.21 22.1265 13.4467L20.3798 13.6867C19.9765 13.7433 19.6665 14.0533 19.5965 14.4433C19.3965 15.2267 19.0765 15.9733 18.6465 16.66C18.4432 16.9833 18.4598 17.4 18.6898 17.7033L19.7298 19.09C19.5732 19.27 19.3832 19.4767 19.1765 19.68L19.0765 19.78C18.8732 19.9833 18.6665 20.1733 18.4898 20.33L17.1165 19.29C17.0098 19.2033 16.8865 19.1367 16.7498 19.1033C16.5132 19.0433 16.2598 19.0833 16.0498 19.21C15.3365 19.64 14.5665 19.9533 13.7565 20.14C13.3832 20.2267 13.1032 20.53 13.0498 20.91L12.8065 22.63C12.5698 22.6433 12.2898 22.6567 11.9998 22.6567H11.8565C11.5665 22.6567 11.2898 22.6433 11.0532 22.63L10.8132 20.8933C10.7598 20.52 10.4865 20.2133 10.1198 20.1233C9.35316 19.9333 8.62316 19.6333 7.9465 19.2233C7.6265 18.9533 7.14983 18.93 6.7965 19.1933L5.4065 20.2367C5.2265 20.08 5.02316 19.89 4.8165 19.6867L4.7165 19.5867C4.51316 19.3833 4.32316 19.1767 4.1665 18.9967L5.1965 17.6367C5.26983 17.5467 5.32983 17.4433 5.3665 17.3333C5.45316 17.0767 5.41983 16.7933 5.27983 16.5633C4.86983 15.8833 4.56316 15.1467 4.3765 14.3767C4.3765 14.3667 4.3765 14.3533 4.37316 14.3433C4.3165 13.9367 3.9965 13.6167 3.58983 13.5567L1.86983 13.3133C1.8565 13.0767 1.84316 12.7967 1.84316 12.5067V12.3633C1.84316 12.0733 1.8565 11.7967 1.86983 11.56L3.61316 11.32C3.9865 11.2667 4.29316 10.9933 4.38316 10.6267C4.5765 9.84667 4.8865 9.10333 5.30983 8.41667C5.32983 8.39333 5.3465 8.36667 5.36316 8.34C5.5565 8.01667 5.5365 7.61 5.30983 7.30667L4.2665 5.91667C4.42316 5.73667 4.61316 5.53333 4.81983 5.32667L4.91983 5.22667C5.12316 5.02333 5.32983 4.83333 5.5065 4.67667L6.86983 5.71C6.97316 5.79667 7.0965 5.86333 7.23316 5.9C7.47316 5.96333 7.73316 5.92667 7.94316 5.79667C8.6365 5.37667 9.3865 5.07 10.1698 4.88333C10.5665 4.82333 10.8865 4.50667 10.9432 4.1L11.1865 2.38C11.4232 2.36333 11.7032 2.35333 11.9932 2.35333H12.1365C12.4265 2.35333 12.7032 2.36667 12.9398 2.38L13.1798 4.12667C13.2298 4.5 13.5065 4.80667 13.8732 4.89667C14.6565 5.09 15.4032 5.40333 16.0965 5.82667C16.4198 6.06333 16.8665 6.06667 17.1965 5.82L18.5865 4.77667C18.7665 4.93333 18.9698 5.12333 19.1765 5.33L19.2765 5.43C19.4798 5.63333 19.6698 5.84 19.8265 6.01667L18.7632 7.42C18.5765 7.66667 18.5265 7.99333 18.6265 8.28333C18.6498 8.35333 18.6832 8.42 18.7232 8.48C19.1465 9.18667 19.4532 9.94667 19.6398 10.7467C19.7265 11.12 20.0298 11.4 20.4098 11.4533L22.1232 11.6967C22.1398 11.9333 22.1498 12.2133 22.1498 12.5033V12.6467L22.1532 12.6433Z" fill="#3B82C4"/>
</g>
<defs>
<clipPath id="clip0_39_3089">
<rect width="24" height="24" fill="white" transform="translate(0 0.5)"/>
</clipPath>
</defs>
</svg>
