<svg width="18" height="18" viewBox="0 0 18 18" fill="none" xmlns="http://www.w3.org/2000/svg">
<g clip-path="url(#clip0_39_1660)">
<path d="M17.7802 16.6677L13.9802 12.8627C16.7352 9.49266 16.2352 4.53016 12.8677 1.77766C9.49519 -0.974843 4.53269 -0.477343 1.78019 2.89266C-0.974807 6.26266 -0.477307 11.2252 2.89269 13.9777C5.79519 16.3477 9.96269 16.3477 12.8652 13.9777L16.6652 17.7777C16.9777 18.0802 17.4752 18.0727 17.7777 17.7602C18.0727 17.4577 18.0727 16.9752 17.7777 16.6677H17.7802ZM7.89269 13.8527C4.60019 13.8527 1.93519 11.1827 1.93519 7.89266C1.93519 4.60266 4.60019 1.93516 7.89269 1.93516C11.1852 1.93516 13.8552 4.60016 13.8552 7.89266C13.8502 11.1852 11.1852 13.8502 7.89269 13.8527Z" fill="#4C4C4C"/>
</g>
<defs>
<clipPath id="clip0_39_1660">
<rect width="18" height="18" fill="white"/>
</clipPath>
</defs>
</svg>
