<svg width="276" height="42" viewBox="0 0 276 42" fill="none" xmlns="http://www.w3.org/2000/svg">
<g clip-path="url(#clip0_50_4403)">
<mask id="mask0_50_4403" style="mask-type:luminance" maskUnits="userSpaceOnUse" x="0" y="0" width="276" height="42">
<path d="M276 0.5H0V41.5H276V0.5Z" fill="white"/>
</mask>
<g mask="url(#mask0_50_4403)">
<path d="M82.9374 33.5986C81.2307 32.9351 80.0094 31.6875 79.2888 29.8485C78.6061 28.1826 78.2799 25.8821 78.3103 22.9469C78.3103 20.0838 78.682 17.8122 79.4254 16.1318C80.1839 14.4082 81.3521 13.2471 82.945 12.6414V15.4972C82.1106 15.966 81.5189 17.0405 81.1624 18.7353C80.9273 19.9036 80.8059 21.3243 80.8059 22.9902C80.7907 24.6849 80.9045 26.12 81.1397 27.31C81.4962 29.0913 82.0954 30.2379 82.945 30.7644V33.5986H82.9374Z" fill="white"/>
<path d="M94.8619 32.0335V26.192H86.753V23.9924H105.595V26.192H97.4485V32.0335H94.8619ZM97.8885 16.2399C97.934 17.3865 98.6546 18.2159 100.05 18.7351C101.15 19.1318 102.774 19.3625 104.928 19.4346V21.5909C103.024 21.5332 101.454 21.3746 100.21 21.1005C98.2678 20.6751 96.9175 19.9755 96.1818 19.0019C95.4384 19.9755 94.073 20.6751 92.0856 21.1005C90.8264 21.3674 89.2714 21.5332 87.4281 21.5909V19.4346C89.5672 19.3769 91.1905 19.1462 92.3056 18.7351C93.7013 18.2159 94.4219 17.3793 94.4674 16.2399H87.4281V14.0403H104.935V16.2399H97.8961H97.8885Z" fill="white"/>
<path d="M111.171 27.4398C111.421 26.2282 111.55 24.7786 111.55 23.0983C111.535 21.4468 111.406 20.0261 111.171 18.8434C110.814 17.1487 110.23 16.0669 109.411 15.6053V12.7495C110.996 13.3697 112.172 14.538 112.93 16.24C113.674 17.9203 114.046 20.192 114.046 23.055C114.046 25.9181 113.712 28.2907 113.044 29.9567C112.301 31.7884 111.095 33.0505 109.411 33.7284V30.8942C110.245 30.3749 110.829 29.2211 111.171 27.4398Z" fill="white"/>
<path d="M126.607 32.0336V26.1921H118.498V23.9926H137.341V26.1921H129.194V32.0336H126.607ZM136.673 20.0045C136.673 20.5959 136.537 21.0213 136.271 21.2738C136.036 21.5117 135.657 21.6343 135.133 21.6343H120.706C120.182 21.6343 119.811 21.5117 119.568 21.2738C119.302 21.0213 119.166 20.5959 119.166 20.0045V14.0332H121.752V15.7063H134.086V14.0332H136.673V20.0045ZM121.752 19.478H134.086V17.8698H121.752V19.478Z" fill="white"/>
<path d="M160.469 20.4731V22.5717H141.604V20.4731H160.469ZM150.494 14.0403V16.0956H144.926V17.2783H150.494V19.312H143.857C143.333 19.312 142.961 19.1967 142.719 18.9731C142.453 18.7207 142.317 18.288 142.317 17.6822V14.0403H150.486H150.494ZM157.222 25.7305H142.324V23.6319H159.832V28.7377H144.934V29.7113H159.832V31.8676H143.887C143.356 31.8676 142.969 31.745 142.726 31.507C142.461 31.2546 142.324 30.8364 142.324 30.2594V26.6824H157.222V25.7305ZM159.824 14.0403V16.0956H154.279V17.2783H159.824V19.312H153.255C152.724 19.312 152.337 19.1967 152.094 18.9731C151.814 18.7063 151.67 18.2736 151.67 17.6822V14.0403H159.816H159.824Z" fill="white"/>
<path d="M176.755 14.0332V16.1895H172.477C172.537 17.264 172.863 18.115 173.455 18.7497C174.183 19.5141 175.321 19.9757 176.861 20.1487V22.4565C175.67 22.3988 174.601 22.168 173.63 21.7569C172.545 21.2882 171.71 20.6247 171.111 19.7665C170.489 20.6031 169.564 21.2665 168.35 21.7786C167.341 22.1896 166.332 22.4132 165.323 22.4565V20.1704C166.886 20.0045 168.016 19.5357 168.729 18.7713C169.306 18.1511 169.624 17.2857 169.685 16.1895H165.452V14.0332H176.74H176.755ZM180.206 23.4156C181.511 24.4758 182.163 25.8171 182.163 27.4398C182.163 29.0624 181.511 30.4038 180.206 31.4639C178.977 32.4519 177.529 32.9495 175.867 32.9495C174.206 32.9495 172.772 32.4519 171.566 31.4639C170.277 30.4038 169.632 29.0624 169.632 27.4398C169.632 25.8171 170.277 24.4758 171.566 23.4156C172.772 22.4276 174.199 21.9372 175.867 21.9372C177.536 21.9372 178.977 22.4348 180.206 23.4156ZM173.455 25.132C172.712 25.7667 172.34 26.5383 172.34 27.4398C172.34 28.3412 172.712 29.0913 173.455 29.7259C174.168 30.3461 174.987 30.6562 175.905 30.6562C176.823 30.6562 177.665 30.3461 178.378 29.7259C179.121 29.0913 179.493 28.3268 179.493 27.4398C179.493 26.5527 179.121 25.7667 178.378 25.132C177.665 24.5407 176.838 24.245 175.905 24.245C174.972 24.245 174.168 24.5407 173.455 25.132ZM180.358 17.0044V14.0404H182.96V22.5286H180.358V19.1607H177.286V17.0044H180.358Z" fill="white"/>
<path d="M198.631 23.4156V28.7739H206.778V30.9735H187.936V28.7739H196.083V23.4156H198.624H198.631ZM205.602 21.9733C205.602 22.5502 205.466 22.9685 205.2 23.2209C204.965 23.4445 204.578 23.5599 204.04 23.5599H190.613C190.09 23.5599 189.718 23.4445 189.476 23.2209C189.225 22.9685 189.096 22.5502 189.096 21.9733V14.0332H191.698V16.5501H202.985V14.0332H205.587V21.9733H205.602ZM191.706 21.4036H202.993V18.6703H191.706V21.4036Z" fill="white"/>
<path d="M218.862 14.0332C218.862 18.0141 219.279 20.9276 220.106 22.7738C220.849 24.4253 222.017 25.3772 223.603 25.6296V28.1682C222.237 28.0095 221.046 27.5407 220.038 26.7474C218.938 25.8893 218.088 24.6777 217.474 23.1272C216.852 24.6344 215.934 25.846 214.735 26.7474C213.696 27.5263 212.558 27.9951 211.329 28.1682V25.6513C212.915 25.37 214.098 24.4109 214.872 22.7738C215.737 20.9276 216.161 18.0069 216.161 14.0332H218.854H218.862ZM226.66 14.0332H229.262V32.113H226.66V14.0332Z" fill="white"/>
<path d="M253.072 28.7737V30.9733H234.23V28.7737H253.072ZM245.1 13.9536C245.1 16.045 245.768 17.6749 247.103 18.8432C248.309 19.8889 249.985 20.5163 252.132 20.7254V23.1413C250.38 22.9971 248.787 22.5716 247.345 21.8504C245.669 21.0355 244.433 19.9321 243.651 18.5475C242.847 19.9465 241.603 21.0499 239.912 21.8721C238.47 22.5644 236.877 22.9899 235.125 23.1413V20.747C237.279 20.5235 238.963 19.8816 240.177 18.8215C241.527 17.6532 242.202 16.0234 242.202 13.9536H245.1Z" fill="white"/>
<path d="M260.65 19.5212V20.7904H266.999V22.9323H259.604C259.08 22.9323 258.701 22.8097 258.443 22.5717C258.177 22.3049 258.041 21.8722 258.041 21.2808V14.0403H266.795V16.1822H260.65V17.4514H265.346V19.5284H260.65V19.5212ZM258.89 24.5189H275.548V30.2594C275.548 30.8364 275.404 31.2546 275.123 31.507C274.888 31.745 274.509 31.8676 273.986 31.8676H260.445C259.922 31.8676 259.543 31.745 259.285 31.507C259.019 31.2546 258.883 30.8364 258.883 30.2594V24.5189H258.89ZM272.939 26.6608H261.492V29.7113H272.939V26.6608ZM268.888 17.3865V14.0403H271.384V23.1631H268.888V19.5645H266.461V17.3865H268.888ZM273.03 14.0403H275.548V23.1631H273.03V14.0403Z" fill="white"/>
<path d="M60.2948 28.947C60.2948 28.947 64.1558 28.0456 64.4896 27.1441C64.4896 27.1441 58.4667 10.8601 56.9041 8.41528L49.8648 0.749237C49.8648 0.749237 49.5234 0.359804 48.8483 0.554521L41.5359 3.38872C41.5359 3.38872 45.3286 2.09783 46.6106 2.42235C46.6106 2.42235 47.4222 2.68197 47.8318 3.45363C47.8318 3.45363 53.521 10.6004 53.8547 11.3721C54.1961 12.1437 56.5627 17.8121 58.1178 22.1896C59.6728 26.5672 60.0824 27.8508 60.1507 28.1105C60.219 28.3701 60.2872 28.947 60.2872 28.947H60.2948Z" fill="white"/>
<path d="M59.9534 29.077L52.2314 32.4882C52.2314 32.4882 55.8193 30.7502 56.6992 30.3607C57.5792 29.9713 59.9458 29.0698 59.9458 29.0698L59.9534 29.077Z" fill="white"/>
<path d="M51.5563 32.6827C51.5563 32.6827 44.517 37.0602 42.8178 38.0915C41.1263 39.1228 38.2134 40.7959 35.3006 41.3079C35.3006 41.3079 33.4725 41.6324 33.1994 41.4377C33.1994 41.4377 31.8416 39.0579 29.9528 37.2549C28.0565 35.452 26.8352 34.2332 26.4332 33.5842C26.0236 32.9423 22.6404 27.8581 22.1019 26.8268C21.5633 25.7955 17.2927 14.1486 17.2927 14.1486C17.2927 14.1486 19.3256 13.6366 21.0854 13.377C21.0854 13.377 22.4356 14.9203 23.5886 18.6559C24.7416 22.3916 25.0071 23.9998 26.0918 25.9325C27.1766 27.8653 29.6115 32.2428 30.4914 32.9495C31.3713 33.6563 33.609 35.6539 34.3524 37.0025C35.0958 38.3511 35.9074 39.3824 36.5901 39.642C37.2653 39.9016 39.5712 39.0002 41.7331 37.2621C43.9026 35.5241 51.5487 32.6899 51.5487 32.6899L51.5563 32.6827Z" fill="white"/>
<path d="M29.2853 32.1633C29.2853 32.1633 31.9251 31.8388 34.2311 32.7402C36.5295 33.6417 39.9202 35.3148 41.6118 37.6947" stroke="white"/>
<path d="M46.3451 34.9978C44.0467 30.6852 40.5877 28.8173 35.9833 27.5336C31.3789 26.2427 26.236 26.9567 26.236 26.9567" stroke="white"/>
<path d="M49.4551 33.7717C49.4551 33.7717 45.4576 25.6585 38.4865 23.6681C31.5154 21.6704 25.2802 24.8941 25.0829 25.2114" stroke="white"/>
<path d="M50.8129 33C48.6435 28.0455 43.9784 22.9541 37.5459 21.6055C31.1134 20.2569 24.6127 23.4733 24.6127 23.4733" stroke="white"/>
<path d="M41.7407 37.9616C43.9102 31.3341 42.7572 23.7329 42.7572 23.7329" stroke="white"/>
<path d="M37.5459 21.6055L33.2753 36.3462" stroke="white"/>
<path d="M32.3271 21.353C32.3271 21.353 27.9276 25.6656 26.9794 28.947" stroke="white"/>
<path d="M1.94721 14.8265C1.22659 15.4756 0.862488 16.2184 0.862488 17.0333C0.862488 23.8051 17.1182 25.9325 17.8161 26.0263L18.0057 24.6993C13.6289 24.144 2.27339 21.692 2.27339 17.0405C2.27339 16.6006 2.48578 16.1967 2.91815 15.8073C7.09017 12.0572 27.6999 12.2519 35.293 12.6486C40.5042 12.9226 48.598 13.6294 57.5716 15.4683C66.6363 17.329 73.3267 19.3771 73.3949 19.3987L73.8273 18.1222C73.759 18.1006 67.0079 16.0309 57.8674 14.1558C48.8028 12.2952 40.6256 11.5812 35.3689 11.3072C34.2311 11.2495 7.40876 9.91531 1.94721 14.8337V14.8265Z" fill="white"/>
<path d="M17.543 23.56C17.543 23.56 13.7503 22.8894 9.77546 21.6706C5.58827 20.3797 1.20386 19.0095 1.20386 15.2377C1.20386 9.2304 30.8176 10.1751 35.7785 10.4347C40.747 10.6944 48.7573 11.4804 57.9888 13.2689C67.7362 15.1584 73.9714 17.4734 73.9714 17.4734" stroke="white" stroke-width="0.8"/>
<path d="M21.5178 15.151L35.331 6.396C35.331 6.396 26.6607 10.2615 24.5899 11.8048C22.5115 13.3481 20.8882 14.2063 20.8882 14.2063L21.5178 15.3241" fill="white"/>
</g>
</g>
<defs>
<clipPath id="clip0_50_4403">
<rect width="276" height="42" fill="white"/>
</clipPath>
</defs>
</svg>
