<svg width="276" height="42" viewBox="0 0 276 42" fill="none" xmlns="http://www.w3.org/2000/svg">
<mask id="mask0_45_4086" style="mask-type:luminance" maskUnits="userSpaceOnUse" x="0" y="0" width="276" height="42">
<path d="M276 0.5H0V41.5H276V0.5Z" fill="white"/>
</mask>
<g mask="url(#mask0_45_4086)">
<path d="M82.9375 33.5988C81.2308 32.9353 80.0095 31.6877 79.2889 29.8487C78.6062 28.1828 78.28 25.8823 78.3104 22.9471C78.3104 20.084 78.6821 17.8124 79.4255 16.132C80.184 14.4084 81.3522 13.2473 82.9451 12.6416V15.4974C82.1107 15.9662 81.519 17.0407 81.1625 18.7355C80.9274 19.9038 80.806 21.3245 80.806 22.9904C80.7908 24.6851 80.9046 26.1202 81.1398 27.3102C81.4963 29.0915 82.0955 30.2381 82.9451 30.7646V33.5988H82.9375Z" fill="#00509A"/>
<path d="M94.862 32.0337V26.1922H86.7531V23.9926H105.595V26.1922H97.4486V32.0337H94.862ZM97.8885 16.2401C97.934 17.3867 98.6547 18.2161 100.05 18.7353C101.15 19.132 102.774 19.3627 104.928 19.4348V21.5911C103.024 21.5334 101.454 21.3748 100.21 21.1007C98.2679 20.6753 96.9176 19.9757 96.1819 19.0021C95.4385 19.9757 94.0731 20.6753 92.0857 21.1007C90.8265 21.3676 89.2715 21.5334 87.4282 21.5911V19.4348C89.5673 19.3771 91.1906 19.1464 92.3057 18.7353C93.7014 18.2161 94.422 17.3795 94.4675 16.2401H87.4282V14.0405H104.935V16.2401H97.8962H97.8885Z" fill="#00509A"/>
<path d="M111.171 27.4398C111.421 26.2282 111.55 24.7786 111.55 23.0983C111.535 21.4468 111.406 20.0261 111.171 18.8434C110.814 17.1487 110.23 16.0669 109.411 15.6053V12.7495C110.996 13.3697 112.172 14.538 112.93 16.24C113.674 17.9203 114.046 20.192 114.046 23.055C114.046 25.9181 113.712 28.2907 113.044 29.9567C112.301 31.7884 111.095 33.0505 109.411 33.7284V30.8942C110.245 30.3749 110.829 29.2211 111.171 27.4398Z" fill="#00509A"/>
<path d="M126.607 32.0336V26.1921H118.498V23.9926H137.341V26.1921H129.194V32.0336H126.607ZM136.673 20.0045C136.673 20.5959 136.537 21.0213 136.271 21.2738C136.036 21.5117 135.657 21.6343 135.133 21.6343H120.706C120.182 21.6343 119.811 21.5117 119.568 21.2738C119.302 21.0213 119.166 20.5959 119.166 20.0045V14.0332H121.752V15.7063H134.086V14.0332H136.673V20.0045ZM121.752 19.478H134.086V17.8698H121.752V19.478Z" fill="#00509A"/>
<path d="M160.469 20.4733V22.5719H141.604V20.4733H160.469ZM150.494 14.0405V16.0958H144.926V17.2785H150.494V19.3122H143.857C143.333 19.3122 142.961 19.1969 142.719 18.9733C142.453 18.7209 142.317 18.2882 142.317 17.6824V14.0405H150.486H150.494ZM157.222 25.7307H142.324V23.6321H159.832V28.7379H144.934V29.7115H159.832V31.8678H143.887C143.356 31.8678 142.969 31.7452 142.726 31.5072C142.461 31.2548 142.324 30.8366 142.324 30.2596V26.6826H157.222V25.7307ZM159.824 14.0405V16.0958H154.279V17.2785H159.824V19.3122H153.255C152.724 19.3122 152.337 19.1969 152.094 18.9733C151.814 18.7065 151.67 18.2738 151.67 17.6824V14.0405H159.816H159.824Z" fill="#00509A"/>
<path d="M176.755 14.0332V16.1895H172.477C172.537 17.264 172.863 18.115 173.455 18.7497C174.183 19.5141 175.321 19.9757 176.861 20.1487V22.4565C175.67 22.3988 174.601 22.168 173.63 21.7569C172.545 21.2882 171.71 20.6247 171.111 19.7665C170.489 20.6031 169.564 21.2665 168.35 21.7786C167.341 22.1896 166.332 22.4132 165.323 22.4565V20.1704C166.886 20.0045 168.016 19.5357 168.729 18.7713C169.306 18.1511 169.624 17.2857 169.685 16.1895H165.452V14.0332H176.74H176.755ZM180.206 23.4156C181.511 24.4758 182.163 25.8171 182.163 27.4398C182.163 29.0624 181.511 30.4038 180.206 31.4639C178.977 32.4519 177.529 32.9495 175.867 32.9495C174.206 32.9495 172.772 32.4519 171.566 31.4639C170.277 30.4038 169.632 29.0624 169.632 27.4398C169.632 25.8171 170.277 24.4758 171.566 23.4156C172.772 22.4276 174.199 21.9372 175.867 21.9372C177.536 21.9372 178.977 22.4348 180.206 23.4156ZM173.455 25.132C172.712 25.7667 172.34 26.5383 172.34 27.4398C172.34 28.3412 172.712 29.0913 173.455 29.7259C174.168 30.3461 174.987 30.6562 175.905 30.6562C176.823 30.6562 177.665 30.3461 178.378 29.7259C179.121 29.0913 179.493 28.3268 179.493 27.4398C179.493 26.5527 179.121 25.7667 178.378 25.132C177.665 24.5407 176.838 24.245 175.905 24.245C174.972 24.245 174.168 24.5407 173.455 25.132ZM180.358 17.0044V14.0404H182.96V22.5286H180.358V19.1607H177.286V17.0044H180.358Z" fill="#00509A"/>
<path d="M198.631 23.4156V28.7739H206.778V30.9735H187.936V28.7739H196.083V23.4156H198.624H198.631ZM205.602 21.9733C205.602 22.5502 205.466 22.9685 205.2 23.2209C204.965 23.4445 204.578 23.5599 204.04 23.5599H190.613C190.09 23.5599 189.718 23.4445 189.476 23.2209C189.225 22.9685 189.096 22.5502 189.096 21.9733V14.0332H191.698V16.5501H202.985V14.0332H205.587V21.9733H205.602ZM191.706 21.4036H202.993V18.6703H191.706V21.4036Z" fill="#00509A"/>
<path d="M218.862 14.0332C218.862 18.0141 219.279 20.9276 220.106 22.7738C220.849 24.4253 222.017 25.3772 223.603 25.6296V28.1682C222.237 28.0095 221.046 27.5407 220.038 26.7474C218.938 25.8893 218.088 24.6777 217.474 23.1272C216.852 24.6344 215.934 25.846 214.735 26.7474C213.696 27.5263 212.558 27.9951 211.329 28.1682V25.6513C212.915 25.37 214.098 24.4109 214.872 22.7738C215.737 20.9276 216.161 18.0069 216.161 14.0332H218.854H218.862ZM226.66 14.0332H229.262V32.113H226.66V14.0332Z" fill="#00509A"/>
<path d="M253.072 28.7737V30.9733H234.23V28.7737H253.072ZM245.1 13.9536C245.1 16.045 245.768 17.6749 247.103 18.8432C248.309 19.8889 249.985 20.5163 252.132 20.7254V23.1413C250.38 22.9971 248.787 22.5716 247.345 21.8504C245.669 21.0355 244.433 19.9321 243.651 18.5475C242.847 19.9465 241.603 21.0499 239.912 21.8721C238.47 22.5644 236.877 22.9899 235.125 23.1413V20.747C237.279 20.5235 238.963 19.8816 240.177 18.8215C241.527 17.6532 242.202 16.0234 242.202 13.9536H245.1Z" fill="#00509A"/>
<path d="M260.65 19.5214V20.7906H266.999V22.9325H259.604C259.08 22.9325 258.701 22.8099 258.443 22.5719C258.177 22.3051 258.041 21.8724 258.041 21.281V14.0405H266.795V16.1824H260.65V17.4516H265.346V19.5286H260.65V19.5214ZM258.89 24.5191H275.548V30.2596C275.548 30.8366 275.404 31.2548 275.123 31.5072C274.888 31.7452 274.509 31.8678 273.986 31.8678H260.445C259.922 31.8678 259.543 31.7452 259.285 31.5072C259.019 31.2548 258.883 30.8366 258.883 30.2596V24.5191H258.89ZM272.939 26.661H261.492V29.7115H272.939V26.661ZM268.888 17.3867V14.0405H271.384V23.1633H268.888V19.5647H266.461V17.3867H268.888ZM273.03 14.0405H275.548V23.1633H273.03V14.0405Z" fill="#00509A"/>
<path d="M60.2949 28.947C60.2949 28.947 64.1559 28.0456 64.4897 27.1441C64.4897 27.1441 58.4668 10.8601 56.9042 8.41528L49.8649 0.749237C49.8649 0.749237 49.5235 0.359804 48.8484 0.554521L41.536 3.38872C41.536 3.38872 45.3287 2.09783 46.6107 2.42235C46.6107 2.42235 47.4223 2.68197 47.8319 3.45363C47.8319 3.45363 53.5211 10.6004 53.8548 11.3721C54.1962 12.1437 56.5628 17.8121 58.1179 22.1896C59.6729 26.5672 60.0825 27.8508 60.1508 28.1105C60.2191 28.3701 60.2873 28.947 60.2873 28.947H60.2949Z" fill="#00509A"/>
<path d="M59.9534 29.077L52.2314 32.4882C52.2314 32.4882 55.8193 30.7502 56.6992 30.3607C57.5792 29.9713 59.9458 29.0698 59.9458 29.0698L59.9534 29.077Z" fill="#00509A"/>
<path d="M51.5563 32.6827C51.5563 32.6827 44.517 37.0602 42.8178 38.0915C41.1263 39.1228 38.2134 40.7959 35.3006 41.3079C35.3006 41.3079 33.4725 41.6324 33.1994 41.4377C33.1994 41.4377 31.8416 39.0579 29.9528 37.2549C28.0565 35.452 26.8352 34.2332 26.4332 33.5842C26.0236 32.9423 22.6404 27.8581 22.1019 26.8268C21.5633 25.7955 17.2927 14.1486 17.2927 14.1486C17.2927 14.1486 19.3256 13.6366 21.0854 13.377C21.0854 13.377 22.4356 14.9203 23.5886 18.6559C24.7416 22.3916 25.0071 23.9998 26.0918 25.9325C27.1766 27.8653 29.6115 32.2428 30.4914 32.9495C31.3713 33.6563 33.609 35.6539 34.3524 37.0025C35.0958 38.3511 35.9074 39.3824 36.5901 39.642C37.2653 39.9016 39.5712 39.0002 41.7331 37.2621C43.9026 35.5241 51.5487 32.6899 51.5487 32.6899L51.5563 32.6827Z" fill="#00509A"/>
<path d="M29.2854 32.1633C29.2854 32.1633 31.9252 31.8388 34.2312 32.7402C36.5296 33.6417 39.9203 35.3148 41.6119 37.6947" stroke="#00509A"/>
<path d="M46.3452 34.9978C44.0468 30.6852 40.5878 28.8173 35.9834 27.5336C31.379 26.2427 26.2361 26.9567 26.2361 26.9567" stroke="#00509A"/>
<path d="M49.4552 33.7715C49.4552 33.7715 45.4577 25.6583 38.4866 23.6679C31.5155 21.6702 25.2803 24.8939 25.083 25.2112" stroke="#00509A"/>
<path d="M50.813 33.0002C48.6436 28.0457 43.9785 22.9543 37.546 21.6057C31.1135 20.2571 24.6128 23.4735 24.6128 23.4735" stroke="#00509A"/>
<path d="M41.7407 37.9616C43.9102 31.3341 42.7572 23.7329 42.7572 23.7329" stroke="#00509A"/>
<path d="M37.546 21.6055L33.2754 36.3462" stroke="#00509A"/>
<path d="M32.3272 21.353C32.3272 21.353 27.9277 25.6656 26.9795 28.947" stroke="#00509A"/>
<path d="M1.94727 14.8267C1.22665 15.4758 0.862549 16.2186 0.862549 17.0335C0.862549 23.8053 17.1183 25.9327 17.8162 26.0265L18.0058 24.6995C13.629 24.1442 2.27345 21.6922 2.27345 17.0407C2.27345 16.6008 2.48584 16.1969 2.91821 15.8075C7.09023 12.0574 27.7 12.2521 35.2931 12.6488C40.5043 12.9228 48.5981 13.6296 57.5717 15.4685C66.6364 17.3292 73.3268 19.3773 73.395 19.3989L73.8274 18.1224C73.7591 18.1008 67.008 16.0311 57.8675 14.156C48.8029 12.2954 40.6257 11.5814 35.369 11.3074C34.2312 11.2497 7.40882 9.91555 1.94727 14.8339V14.8267Z" fill="#00509A"/>
<path d="M17.5431 23.56C17.5431 23.56 13.7504 22.8894 9.77558 21.6706C5.58839 20.3797 1.20398 19.0095 1.20398 15.2377C1.20398 9.2304 30.8177 10.1751 35.7786 10.4347C40.7471 10.6944 48.7574 11.4804 57.9889 13.2689C67.7363 15.1584 73.9715 17.4734 73.9715 17.4734" stroke="#00509A" stroke-width="0.8"/>
<path d="M21.5179 15.151L35.3311 6.396C35.3311 6.396 26.6608 10.2615 24.59 11.8048C22.5116 13.3481 20.8883 14.2063 20.8883 14.2063L21.5179 15.3241" fill="#00509A"/>
</g>
</svg>
